<svg width="48" height="28" viewBox="0 0 48 28" fill="none" xmlns="http://www.w3.org/2000/svg">
<path d="M8 14L12 8L16 14M8 14L12 20L16 14M8 14L12 15.5L16 14" stroke="black" stroke-width="1.5" stroke-linecap="round" stroke-linejoin="round"/>
<path d="M12 24C17.5228 24 22 19.5228 22 14C22 8.47715 17.5228 4 12 4C6.47715 4 2 8.47715 2 14C2 19.5228 6.47715 24 12 24Z" stroke="black" stroke-width="1.5"/>
<path d="M36.206 15.734C36.206 16.562 35.996 17.312 35.576 17.984C35.168 18.656 34.61 19.19 33.902 19.586C33.206 19.982 32.414 20.18 31.526 20.18C30.566 20.18 29.732 19.946 29.024 19.478C28.328 19.01 27.788 18.338 27.404 17.462C27.02 16.586 26.828 15.536 26.828 14.312C26.828 12.764 27.026 11.456 27.422 10.388C27.83 9.308 28.406 8.498 29.15 7.958C29.894 7.406 30.77 7.13 31.778 7.13C32.582 7.13 33.32 7.304 33.992 7.652C34.676 8 35.252 8.498 35.72 9.146L34.334 10.658C34.046 10.214 33.674 9.866 33.218 9.614C32.762 9.35 32.27 9.218 31.742 9.218C31.202 9.218 30.734 9.362 30.338 9.65C29.942 9.938 29.636 10.358 29.42 10.91C29.204 11.45 29.084 12.104 29.06 12.872C29.228 12.584 29.444 12.338 29.708 12.134C29.972 11.918 30.278 11.756 30.626 11.648C30.974 11.528 31.346 11.468 31.742 11.468C32.594 11.468 33.356 11.66 34.028 12.044C34.7 12.416 35.228 12.926 35.612 13.574C36.008 14.21 36.206 14.93 36.206 15.734ZM31.526 18.146C31.958 18.146 32.354 18.038 32.714 17.822C33.074 17.594 33.362 17.3 33.578 16.94C33.794 16.568 33.902 16.166 33.902 15.734C33.902 15.302 33.794 14.912 33.578 14.564C33.362 14.204 33.074 13.922 32.714 13.718C32.366 13.502 31.976 13.394 31.544 13.394C31.112 13.394 30.716 13.502 30.356 13.718C29.996 13.922 29.708 14.204 29.492 14.564C29.288 14.912 29.186 15.302 29.186 15.734C29.186 16.166 29.294 16.568 29.51 16.94C29.726 17.3 30.014 17.594 30.374 17.822C30.734 18.038 31.118 18.146 31.526 18.146ZM47.0136 16.22C47.0136 17.012 46.7976 17.702 46.3656 18.29C45.9456 18.878 45.3816 19.34 44.6736 19.676C43.9656 20 43.1916 20.162 42.3516 20.162C41.4996 20.162 40.7196 19.988 40.0116 19.64C39.3156 19.292 38.7576 18.818 38.3376 18.218C37.9296 17.606 37.7256 16.91 37.7256 16.13C37.7256 15.65 37.8276 15.218 38.0316 14.834C38.2356 14.438 38.4876 14.102 38.7876 13.826C39.0996 13.538 39.4116 13.316 39.7236 13.16C39.4356 13.016 39.1656 12.824 38.9136 12.584C38.6736 12.344 38.4816 12.068 38.3376 11.756C38.1936 11.444 38.1216 11.114 38.1216 10.766C38.1216 10.202 38.2476 9.698 38.4996 9.254C38.7516 8.81 39.0876 8.438 39.5076 8.138C39.9276 7.826 40.3836 7.598 40.8756 7.454C41.3796 7.298 41.8776 7.22 42.3696 7.22C42.8496 7.22 43.3416 7.298 43.8456 7.454C44.3496 7.598 44.8116 7.82 45.2316 8.12C45.6516 8.42 45.9876 8.792 46.2396 9.236C46.5036 9.668 46.6356 10.172 46.6356 10.748C46.6356 11.084 46.5576 11.414 46.4016 11.738C46.2576 12.05 46.0596 12.332 45.8076 12.584C45.5676 12.824 45.2916 13.016 44.9796 13.16C45.3276 13.34 45.6576 13.574 45.9696 13.862C46.2816 14.15 46.5336 14.492 46.7256 14.888C46.9176 15.284 47.0136 15.728 47.0136 16.22ZM44.5656 16.076C44.5656 15.764 44.5056 15.494 44.3856 15.266C44.2656 15.026 44.0976 14.828 43.8816 14.672C43.6656 14.504 43.4256 14.378 43.1616 14.294C42.8976 14.21 42.6276 14.168 42.3516 14.168C41.9676 14.168 41.6076 14.246 41.2716 14.402C40.9476 14.558 40.6836 14.78 40.4796 15.068C40.2756 15.356 40.1736 15.692 40.1736 16.076C40.1736 16.364 40.2336 16.628 40.3536 16.868C40.4856 17.096 40.6536 17.294 40.8576 17.462C41.0736 17.63 41.3076 17.762 41.5596 17.858C41.8236 17.942 42.0936 17.984 42.3696 17.984C42.7536 17.984 43.1136 17.9 43.4496 17.732C43.7856 17.564 44.0556 17.336 44.2596 17.048C44.4636 16.76 44.5656 16.436 44.5656 16.076ZM40.5696 10.838C40.5696 11.162 40.6596 11.438 40.8396 11.666C41.0196 11.894 41.2476 12.068 41.5236 12.188C41.8116 12.296 42.0936 12.35 42.3696 12.35C42.6576 12.35 42.9336 12.29 43.1976 12.17C43.4736 12.05 43.7016 11.882 43.8816 11.666C44.0736 11.438 44.1696 11.156 44.1696 10.82C44.1696 10.52 44.0856 10.262 43.9176 10.046C43.7496 9.83 43.5276 9.662 43.2516 9.542C42.9876 9.422 42.6876 9.362 42.3516 9.362C42.0396 9.362 41.7456 9.422 41.4696 9.542C41.1936 9.662 40.9716 9.836 40.8036 10.064C40.6476 10.28 40.5696 10.538 40.5696 10.838Z" fill="#0E1218"/>
</svg>
